<?xml version="1.0" encoding="UTF-8"?>
<svg width="478px" height="478px" viewBox="0 0 478 478" version="1.1" xmlns="http://www.w3.org/2000/svg" xmlns:xlink="http://www.w3.org/1999/xlink">
    <title>global</title>
    <defs>
        <filter id="filter-1">
            <feColorMatrix in="SourceGraphic" type="matrix" values="0 0 0 0 1.000000 0 0 0 0 1.000000 0 0 0 0 1.000000 0 0 0 1.000000 0"></feColorMatrix>
        </filter>
    </defs>
    <g id="Page-1" stroke="none" stroke-width="1" fill="none" fill-rule="evenodd">
        <g filter="url(#filter-1)" id="global">
            <g>
                <path d="M433.562,100.983 C433.554,100.829 433.537,100.675 433.511,100.522 C432.914,99.669 432.18,98.935 431.565,98.099 C427.105,92.023 422.383,86.175 417.4,80.554 C416.035,79.018 414.669,77.499 413.27,75.997 C408.139,70.502 402.757,65.262 397.125,60.279 C396.084,59.357 395.111,58.402 394.07,57.497 C380.19,45.606 364.992,35.344 348.775,26.914 C348.126,26.573 347.444,26.283 346.778,25.941 C339.556,22.271 332.151,18.972 324.591,16.059 C322.884,15.445 321.331,14.864 319.71,14.352 C312.986,11.929 306.159,9.807 299.23,7.986 C297.182,7.44 295.134,6.877 293.052,6.399 C286.225,4.812 279.399,3.6 272.418,2.61 C270.302,2.303 268.22,1.893 266.086,1.637 C248.107,-0.548 229.93,-0.548 211.95,1.637 C209.817,1.893 207.735,2.303 205.618,2.61 C198.638,3.6 191.743,4.812 184.984,6.399 C182.902,6.877 180.854,7.44 178.806,7.986 C171.831,9.806 165.005,11.928 158.326,14.352 C156.619,14.932 155.066,15.513 153.445,16.059 C145.886,18.972 138.48,22.27 131.258,25.941 C130.592,26.282 129.91,26.572 129.261,26.914 C112.99,35.335 97.741,45.596 83.812,57.497 C82.771,58.401 81.798,59.357 80.757,60.279 C75.068,65.285 69.686,70.525 64.612,75.997 C63.213,77.499 61.847,79.018 60.482,80.554 C55.487,86.163 50.765,92.011 46.317,98.098 C45.703,98.934 44.969,99.668 44.371,100.521 C44.293,100.67 44.224,100.824 44.166,100.982 C-14.7,183.479 -14.7,294.249 44.166,376.745 C44.224,376.903 44.292,377.057 44.371,377.206 C44.968,378.059 45.702,378.793 46.317,379.629 C50.766,385.705 55.487,391.553 60.482,397.174 C61.847,398.71 63.213,400.229 64.612,401.731 C69.755,407.226 75.136,412.466 80.757,417.449 C81.798,418.371 82.771,419.326 83.812,420.231 C97.692,432.122 112.89,442.384 129.107,450.814 C129.756,451.155 130.438,451.445 131.104,451.787 C138.326,455.457 145.731,458.756 153.291,461.669 C154.998,462.283 156.551,462.864 158.172,463.376 C164.896,465.799 171.723,467.921 178.652,469.742 C180.7,470.288 182.748,470.851 184.83,471.329 C191.657,472.916 198.483,474.128 205.464,475.118 C207.58,475.425 209.662,475.835 211.796,476.091 C229.775,478.276 247.952,478.276 265.932,476.091 C268.065,475.835 270.147,475.425 272.264,475.118 C279.244,474.128 286.139,472.916 292.898,471.329 C294.98,470.851 297.028,470.288 299.076,469.742 C306.062,467.922 312.889,465.8 319.556,463.376 C321.263,462.796 322.816,462.215 324.437,461.669 C331.996,458.756 339.402,455.458 346.624,451.787 C347.29,451.446 347.972,451.156 348.621,450.814 C364.838,442.383 380.036,432.122 393.916,420.231 C394.957,419.326 395.93,418.371 396.971,417.449 C402.66,412.454 408.042,407.215 413.116,401.731 C414.515,400.229 415.881,398.71 417.246,397.174 C422.241,391.553 426.963,385.705 431.411,379.629 C432.025,378.793 432.759,378.059 433.357,377.206 C433.435,377.057 433.504,376.903 433.562,376.745 C492.428,294.25 492.428,183.48 433.562,100.983 Z M414.089,133.274 C430.411,160.155 440.267,190.459 442.88,221.799 L340.651,221.799 C339.399,201.463 336.199,181.295 331.094,161.571 C359.971,156.163 387.922,146.633 414.089,133.274 Z M282.368,38.775 C283.324,38.997 284.245,39.304 285.201,39.526 C291.311,40.96 297.37,42.598 303.292,44.646 C304.197,44.953 305.084,45.312 305.972,45.636 C311.843,47.684 317.628,49.954 323.295,52.463 C324.285,52.924 325.258,53.436 326.248,53.897 C331.675,56.48 336.977,59.273 342.154,62.277 L345.567,64.342 C350.482,67.346 355.261,70.56 359.903,73.985 C361.098,74.855 362.292,75.692 363.47,76.647 C368.021,80.06 372.379,83.718 376.543,87.621 C377.635,88.611 378.762,89.584 379.837,90.608 C384.206,94.755 388.37,99.141 392.398,103.681 C392.91,104.278 393.456,104.824 393.968,105.388 C370.859,116.401 346.378,124.265 321.179,128.769 C309.505,96.677 294.084,66.075 275.236,37.599 C277.606,38.025 280.03,38.264 282.368,38.775 Z M171.298,221.798 C172.644,203.332 175.788,185.041 180.685,167.185 C200.022,169.482 219.478,170.621 238.951,170.598 C258.442,170.592 277.916,169.424 297.268,167.099 C302.156,184.984 305.283,203.304 306.603,221.798 L171.298,221.798 Z M306.603,255.932 C305.257,274.398 302.113,292.689 297.216,310.545 C277.879,308.248 258.423,307.109 238.95,307.132 C219.46,307.11 199.987,308.249 180.633,310.545 C175.75,292.688 172.624,274.397 171.297,255.932 L306.603,255.932 L306.603,255.932 Z M238.95,45.193 C258.372,72.72 274.346,102.525 286.515,133.94 C270.716,135.618 254.839,136.461 238.95,136.466 C223.079,136.447 207.219,135.599 191.436,133.923 C203.62,102.529 219.575,72.734 238.95,45.193 Z M85.521,103.663 C89.532,99.123 93.713,94.737 98.082,90.59 C99.157,89.566 100.284,88.593 101.376,87.603 C105.586,83.769 109.944,80.111 114.449,76.629 C115.627,75.724 116.821,74.922 118.016,73.967 C122.658,70.554 127.437,67.339 132.352,64.324 L135.765,62.259 C140.942,59.233 146.244,56.439 151.671,53.879 C152.661,53.418 153.634,52.906 154.624,52.445 C160.29,49.885 166.076,47.615 171.947,45.618 C172.834,45.294 173.654,44.935 174.626,44.628 C180.548,42.648 186.573,41.01 192.717,39.508 C193.673,39.286 194.594,38.979 195.567,38.774 C197.905,38.262 200.329,38.023 202.701,37.596 C183.845,66.077 168.419,96.685 156.74,128.783 C131.541,124.279 107.059,116.415 83.951,105.402 C84.463,104.806 85.009,104.26 85.521,103.663 Z M63.812,133.274 C89.973,146.632 117.918,156.162 146.79,161.571 C141.691,181.296 138.496,201.464 137.25,221.799 L35.021,221.799 C37.635,190.459 47.491,160.155 63.812,133.274 Z M63.812,344.457 C47.49,317.576 37.634,287.272 35.021,255.932 L137.25,255.932 C138.502,276.268 141.702,296.436 146.807,316.16 C117.93,321.567 89.979,331.097 63.812,344.457 Z M195.533,438.955 C194.577,438.733 193.656,438.426 192.7,438.204 C186.59,436.77 180.531,435.132 174.609,433.084 C173.704,432.777 172.817,432.418 171.929,432.094 C166.058,430.046 160.273,427.776 154.606,425.267 C153.616,424.806 152.643,424.294 151.653,423.833 C146.226,421.25 140.924,418.457 135.747,415.453 L132.334,413.388 C127.419,410.384 122.64,407.17 117.998,403.745 C116.803,402.875 115.609,402.038 114.431,401.083 C109.88,397.67 105.522,394.012 101.358,390.109 C100.266,389.119 99.139,388.146 98.064,387.122 C93.695,382.975 89.531,378.589 85.503,374.049 C84.991,373.452 84.445,372.906 83.933,372.342 C107.042,361.329 131.523,353.465 156.722,348.961 C168.396,381.053 183.817,411.655 202.665,440.131 C200.294,439.706 197.871,439.467 195.533,438.955 Z M238.95,432.538 C219.528,405.011 203.554,375.206 191.385,343.791 C222.992,340.389 254.873,340.389 286.48,343.791 L286.463,343.808 C274.281,375.201 258.326,404.996 238.95,432.538 Z M392.38,374.067 C388.369,378.607 384.188,382.993 379.819,387.14 C378.744,388.164 377.617,389.137 376.525,390.127 C372.315,393.973 367.957,397.631 363.452,401.101 C362.274,402.005 361.08,402.893 359.885,403.763 C355.243,407.176 350.464,410.391 345.549,413.406 L342.136,415.471 C336.97,418.486 331.668,421.279 326.23,423.851 C325.24,424.312 324.267,424.824 323.277,425.285 C317.611,427.845 311.825,430.115 305.954,432.112 C305.067,432.436 304.247,432.795 303.275,433.102 C297.353,435.082 291.328,436.72 285.184,438.222 C284.228,438.444 283.307,438.751 282.334,438.956 C279.996,439.468 277.572,439.707 275.2,440.134 C294.048,411.658 309.47,381.056 321.143,348.964 C346.342,353.468 370.824,361.332 393.932,372.345 C393.438,372.924 392.892,373.47 392.38,374.067 Z M414.089,344.457 C387.928,331.099 359.983,321.569 331.111,316.16 C336.21,296.435 339.405,276.267 340.651,255.932 L442.88,255.932 C440.266,287.271 430.41,317.575 414.089,344.457 Z" id="Shape" fill="#000000" fill-rule="nonzero"></path>
            </g>
        </g>
    </g>
</svg>