<?xml version="1.0" encoding="UTF-8"?>
<svg width="65px" height="71px" viewBox="0 0 65 71" version="1.1" xmlns="http://www.w3.org/2000/svg" xmlns:xlink="http://www.w3.org/1999/xlink">
    <title>Github logo</title>
    <g id="Page-1" stroke="none" stroke-width="1" fill="none" fill-rule="evenodd">
        <g id="Home-Page" transform="translate(-900.000000, -340.000000)">
            <g id="Body" transform="translate(159.000000, 177.000000)">
                <g id="Github-logo" transform="translate(732.000000, 163.000000)">
                    <g id="github" transform="translate(19.000000, 0.000000)" fill="#212121" fill-rule="nonzero">
                        <path d="M22.5,0 C10.06875,0 0,9.87115677 0,22.0455834 C0,31.7877421 6.44625,40.0492273 15.384375,42.9619664 C16.509375,43.169485 16.921875,42.4871039 16.921875,41.9019388 C16.921875,41.3784683 16.903125,39.9912717 16.89375,38.1535165 C10.635,39.4827575 9.315,35.1959086 9.315,35.1959086 C8.29125,32.6514684 6.811875,31.9709568 6.811875,31.9709568 C4.77375,30.6043251 6.969375,30.6323681 6.969375,30.6323681 C9.22875,30.7856702 10.415625,32.9038559 10.415625,32.9038559 C12.421875,36.2746316 15.6825,35.3006027 16.96875,34.737872 C17.17125,33.311415 17.750625,32.3411252 18.39375,31.7896117 C13.396875,31.2380982 8.145,29.3423874 8.145,20.895818 C8.145,18.4897236 9.016875,16.5229704 10.460625,14.9806021 C10.2075,14.42348 9.448125,12.1819048 10.6575,9.14577631 C10.6575,9.14577631 12.541875,8.55500253 16.845,11.4060469 C18.645,10.9162281 20.5575,10.6731883 22.47,10.661971 C24.3825,10.6731883 26.295,10.9162281 28.095,11.4060469 C32.37,8.55500253 34.254375,9.14577631 34.254375,9.14577631 C35.46375,12.1819048 34.704375,14.42348 34.479375,14.9806021 C35.91375,16.5229704 36.785625,18.4897236 36.785625,20.895818 C36.785625,29.3648218 31.52625,31.2287505 26.52,31.7709163 C27.3075,32.4327325 28.03875,33.7844079 28.03875,35.8502466 C28.03875,38.8003764 28.010625,41.1709497 28.010625,41.8869825 C28.010625,42.4646695 28.404375,43.1545287 29.5575,42.9339233 C38.559375,40.0398796 45,31.7727858 45,22.0455834 C45,9.87115677 34.925625,0 22.5,0 L22.5,0 Z" id="Path"></path>
                    </g>
                    <text id="Github" font-family="SFProText-Regular, SF Pro Text" font-size="21" font-weight="normal" letter-spacing="0.0286363612" fill="#000000">
                        <tspan x="8.41189365" y="70">Github</tspan>
                    </text>
                </g>
            </g>
        </g>
    </g>
</svg>