<?xml version="1.0" encoding="UTF-8"?>
<svg width="81px" height="71px" viewBox="0 0 81 71" version="1.1" xmlns="http://www.w3.org/2000/svg" xmlns:xlink="http://www.w3.org/1999/xlink">
    <title>Linkedin logo</title>
    <g id="Page-1" stroke="none" stroke-width="1" fill="none" fill-rule="evenodd">
        <g id="Home-Page" transform="translate(-1021.000000, -340.000000)" fill="#000000">
            <g id="Body" transform="translate(159.000000, 177.000000)">
                <g id="Linkedin-logo" transform="translate(861.000000, 163.000000)">
                    <g id="linkedin" transform="translate(19.000000, 0.000000)" fill-rule="nonzero">
                        <path d="M44.9886854,45 L44.9886854,44.9981371 L45,44.9981371 L45,28.6008888 C45,20.5792402 43.2519019,14.4 33.7589936,14.4 C29.1954581,14.4 26.1329863,16.8739316 24.8827284,19.219323 L24.7507253,19.219323 L24.7507253,15.1488859 L15.75,15.1488859 L15.75,44.9981371 L25.1222197,44.9981371 L25.1222197,30.2178863 C25.1222197,26.3262876 25.8689801,22.563229 30.7474373,22.563229 C35.5542357,22.563229 35.6258945,27.0043833 35.6258945,30.4675149 L35.6258945,45 L44.9886854,45 Z" id="Path"></path>
                        <polygon id="Path" points="0.9 14.85 10.35 14.85 10.35 45 0.9 45"></polygon>
                        <path d="M5.4,0 C2.41894518,0 0,2.40766707 0,5.374823 C0,8.34197893 2.41894518,10.8 5.4,10.8 C8.38105482,10.8 10.8,8.34197893 10.8,5.374823 C10.7981263,2.40766707 8.37918112,0 5.4,0 Z" id="Path"></path>
                    </g>
                    <text id="Linkedin" font-family="SFProText-Regular, SF Pro Text" font-size="21" font-weight="normal" letter-spacing="0.0286363612">
                        <tspan x="0.0878471331" y="70">Linkedin</tspan>
                    </text>
                </g>
            </g>
        </g>
    </g>
</svg>